<svg id="visual" viewBox="0 0 900 600" width="900" height="600" xmlns="http://www.w3.org/2000/svg" xmlns:xlink="http://www.w3.org/1999/xlink" version="1.1"><g stroke-width="1" stroke-linejoin="bevel"><path d="M480 327L406 364L487 402Z" fill="#2b2b2c" stroke="#2b2b2c"></path><path d="M480 327L386 339L406 364Z" fill="#1f1f1f" stroke="#1f1f1f"></path><path d="M487 402L560 406L480 327Z" fill="#191919" stroke="#191919"></path><path d="M424 529L471 490L406 364Z" fill="#222222" stroke="#222222"></path><path d="M406 364L471 490L487 402Z" fill="#191919" stroke="#191919"></path><path d="M487 402L471 490L560 406Z" fill="#252525" stroke="#252525"></path><path d="M560 406L595 287L480 327Z" fill="#131313" stroke="#131313"></path><path d="M480 327L375 193L386 339Z" fill="#1c1c1c" stroke="#1c1c1c"></path><path d="M338 515L424 529L406 364Z" fill="#0b0b0b" stroke="#0b0b0b"></path><path d="M386 339L278 370L406 364Z" fill="#1f1f1f" stroke="#1f1f1f"></path><path d="M595 287L534 207L480 327Z" fill="#2b2b2c" stroke="#2b2b2c"></path><path d="M386 339L290 293L278 370Z" fill="#1f1f1f" stroke="#1f1f1f"></path><path d="M315 216L290 293L386 339Z" fill="#2b2b2c" stroke="#2b2b2c"></path><path d="M278 370L338 515L406 364Z" fill="#1f1f1f" stroke="#1f1f1f"></path><path d="M534 207L375 193L480 327Z" fill="#2b2b2c" stroke="#2b2b2c"></path><path d="M375 193L315 216L386 339Z" fill="#282829" stroke="#282829"></path><path d="M471 490L613 508L560 406Z" fill="#0f0f0f" stroke="#0f0f0f"></path><path d="M560 406L688 379L595 287Z" fill="#191919" stroke="#191919"></path><path d="M581 600L613 508L471 490Z" fill="#2b2b2c" stroke="#2b2b2c"></path><path d="M181 264L234 364L290 293Z" fill="#0f0f0f" stroke="#0f0f0f"></path><path d="M290 293L234 364L278 370Z" fill="#2b2b2c" stroke="#2b2b2c"></path><path d="M278 370L215 492L338 515Z" fill="#2b2b2c" stroke="#2b2b2c"></path><path d="M684 464L688 379L560 406Z" fill="#2b2b2c" stroke="#2b2b2c"></path><path d="M595 287L591 169L534 207Z" fill="#2b2b2c" stroke="#2b2b2c"></path><path d="M364 600L483 600L424 529Z" fill="#131313" stroke="#131313"></path><path d="M424 529L483 600L471 490Z" fill="#252525" stroke="#252525"></path><path d="M682 164L591 169L595 287Z" fill="#2b2b2c" stroke="#2b2b2c"></path><path d="M534 207L503 126L375 193Z" fill="#2b2b2c" stroke="#2b2b2c"></path><path d="M591 169L503 126L534 207Z" fill="#222222" stroke="#222222"></path><path d="M375 193L275 108L315 216Z" fill="#0b0b0b" stroke="#0b0b0b"></path><path d="M336 600L364 600L338 515Z" fill="#0f0f0f" stroke="#0f0f0f"></path><path d="M338 515L364 600L424 529Z" fill="#2b2b2c" stroke="#2b2b2c"></path><path d="M724 600L684 464L613 508Z" fill="#282829" stroke="#282829"></path><path d="M613 508L684 464L560 406Z" fill="#0f0f0f" stroke="#0f0f0f"></path><path d="M775 364L704 339L688 379Z" fill="#161616" stroke="#161616"></path><path d="M688 379L704 339L595 287Z" fill="#1c1c1c" stroke="#1c1c1c"></path><path d="M215 492L336 600L338 515Z" fill="#252525" stroke="#252525"></path><path d="M483 600L581 600L471 490Z" fill="#161616" stroke="#161616"></path><path d="M503 126L385 110L375 193Z" fill="#1f1f1f" stroke="#1f1f1f"></path><path d="M234 364L215 492L278 370Z" fill="#2b2b2c" stroke="#2b2b2c"></path><path d="M682 164L597 118L591 169Z" fill="#0f0f0f" stroke="#0f0f0f"></path><path d="M591 169L597 118L503 126Z" fill="#0b0b0b" stroke="#0b0b0b"></path><path d="M503 126L522 0L385 110Z" fill="#0f0f0f" stroke="#0f0f0f"></path><path d="M315 216L181 264L290 293Z" fill="#191919" stroke="#191919"></path><path d="M234 364L129 411L215 492Z" fill="#252525" stroke="#252525"></path><path d="M177 207L181 264L315 216Z" fill="#282829" stroke="#282829"></path><path d="M704 339L682 164L595 287Z" fill="#0f0f0f" stroke="#0f0f0f"></path><path d="M385 110L275 108L375 193Z" fill="#161616" stroke="#161616"></path><path d="M275 108L238 137L315 216Z" fill="#191919" stroke="#191919"></path><path d="M238 137L177 207L315 216Z" fill="#2b2b2c" stroke="#2b2b2c"></path><path d="M775 464L775 364L688 379Z" fill="#282829" stroke="#282829"></path><path d="M789 204L730 135L682 164Z" fill="#191919" stroke="#191919"></path><path d="M775 464L688 379L684 464Z" fill="#282829" stroke="#282829"></path><path d="M126 306L129 411L234 364Z" fill="#282829" stroke="#282829"></path><path d="M126 306L234 364L181 264Z" fill="#282829" stroke="#282829"></path><path d="M103 216L126 306L181 264Z" fill="#252525" stroke="#252525"></path><path d="M724 600L775 464L684 464Z" fill="#252525" stroke="#252525"></path><path d="M215 492L191 600L336 600Z" fill="#191919" stroke="#191919"></path><path d="M95 527L191 600L215 492Z" fill="#161616" stroke="#161616"></path><path d="M581 600L724 600L613 508Z" fill="#0f0f0f" stroke="#0f0f0f"></path><path d="M789 204L682 164L704 339Z" fill="#1f1f1f" stroke="#1f1f1f"></path><path d="M682 164L730 135L597 118Z" fill="#252525" stroke="#252525"></path><path d="M900 303L811 284L775 364Z" fill="#0f0f0f" stroke="#0f0f0f"></path><path d="M775 364L811 284L704 339Z" fill="#0b0b0b" stroke="#0b0b0b"></path><path d="M811 284L789 204L704 339Z" fill="#1f1f1f" stroke="#1f1f1f"></path><path d="M611 0L522 0L597 118Z" fill="#1c1c1c" stroke="#1c1c1c"></path><path d="M597 118L522 0L503 126Z" fill="#282829" stroke="#282829"></path><path d="M385 110L335 0L275 108Z" fill="#222222" stroke="#222222"></path><path d="M167 0L79 129L238 137Z" fill="#191919" stroke="#191919"></path><path d="M522 0L372 0L385 110Z" fill="#161616" stroke="#161616"></path><path d="M79 129L103 216L177 207Z" fill="#282829" stroke="#282829"></path><path d="M177 207L103 216L181 264Z" fill="#252525" stroke="#252525"></path><path d="M0 491L95 527L129 411Z" fill="#0b0b0b" stroke="#0b0b0b"></path><path d="M79 129L177 207L238 137Z" fill="#252525" stroke="#252525"></path><path d="M372 0L335 0L385 110Z" fill="#222222" stroke="#222222"></path><path d="M0 372L129 411L126 306Z" fill="#0f0f0f" stroke="#0f0f0f"></path><path d="M129 411L95 527L215 492Z" fill="#222222" stroke="#222222"></path><path d="M705 0L611 0L597 118Z" fill="#1f1f1f" stroke="#1f1f1f"></path><path d="M724 600L812 600L775 464Z" fill="#222222" stroke="#222222"></path><path d="M775 464L900 400L775 364Z" fill="#1f1f1f" stroke="#1f1f1f"></path><path d="M167 0L238 137L275 108Z" fill="#1c1c1c" stroke="#1c1c1c"></path><path d="M0 326L0 372L126 306Z" fill="#2b2b2c" stroke="#2b2b2c"></path><path d="M824 70L705 0L730 135Z" fill="#1f1f1f" stroke="#1f1f1f"></path><path d="M730 135L705 0L597 118Z" fill="#131313" stroke="#131313"></path><path d="M900 486L900 400L775 464Z" fill="#1c1c1c" stroke="#1c1c1c"></path><path d="M811 284L900 203L789 204Z" fill="#1f1f1f" stroke="#1f1f1f"></path><path d="M789 204L824 70L730 135Z" fill="#2b2b2c" stroke="#2b2b2c"></path><path d="M900 400L900 303L775 364Z" fill="#282829" stroke="#282829"></path><path d="M0 326L126 306L103 216Z" fill="#252525" stroke="#252525"></path><path d="M0 199L0 326L103 216Z" fill="#191919" stroke="#191919"></path><path d="M0 491L60 600L95 527Z" fill="#161616" stroke="#161616"></path><path d="M95 527L60 600L191 600Z" fill="#161616" stroke="#161616"></path><path d="M812 600L900 486L775 464Z" fill="#0b0b0b" stroke="#0b0b0b"></path><path d="M335 0L167 0L275 108Z" fill="#2b2b2c" stroke="#2b2b2c"></path><path d="M0 372L0 491L129 411Z" fill="#131313" stroke="#131313"></path><path d="M900 203L824 70L789 204Z" fill="#0f0f0f" stroke="#0f0f0f"></path><path d="M900 303L900 203L811 284Z" fill="#161616" stroke="#161616"></path><path d="M0 85L0 199L79 129Z" fill="#282829" stroke="#282829"></path><path d="M79 129L0 199L103 216Z" fill="#252525" stroke="#252525"></path><path d="M812 600L900 600L900 486Z" fill="#131313" stroke="#131313"></path><path d="M167 0L104 0L79 129Z" fill="#2b2b2c" stroke="#2b2b2c"></path><path d="M0 491L0 600L60 600Z" fill="#131313" stroke="#131313"></path><path d="M900 0L810 0L824 70Z" fill="#0b0b0b" stroke="#0b0b0b"></path><path d="M824 70L810 0L705 0Z" fill="#161616" stroke="#161616"></path><path d="M900 203L900 86L824 70Z" fill="#282829" stroke="#282829"></path><path d="M104 0L0 85L79 129Z" fill="#0b0b0b" stroke="#0b0b0b"></path><path d="M900 86L900 0L824 70Z" fill="#131313" stroke="#131313"></path><path d="M104 0L0 0L0 85Z" fill="#0b0b0b" stroke="#0b0b0b"></path></g></svg>